<?xml version="1.0" standalone="no"?>
<!DOCTYPE svg PUBLIC "-//W3C//DTD SVG 20010904//EN"
 "http://www.w3.org/TR/2001/REC-SVG-20010904/DTD/svg10.dtd">
<svg version="1.0" xmlns="http://www.w3.org/2000/svg"
 width="462.000000pt" height="150.000000pt" viewBox="0 0 462.000000 150.000000"
 preserveAspectRatio="xMidYMid meet">

<g transform="translate(0.000000,150.000000) scale(0.100000,-0.100000)"
fill="#000000" stroke="none">
<path d="M540 1397 c-121 -36 -196 -82 -291 -177 -94 -94 -153 -193 -185 -310
-24 -87 -24 -252 0 -340 66 -244 253 -431 496 -496 87 -23 253 -23 340 0 237
64 414 237 489 480 30 96 30 275 0 372 -37 123 -85 201 -178 294 -97 96 -180
146 -301 179 -105 30 -267 28 -370 -2z m43 -159 l67 -73 -2 59 c-2 56 11 82
27 57 4 -7 14 -6 29 4 17 12 30 13 49 6 52 -20 63 -86 21 -127 -24 -25 -35
-26 -76 -9 -15 6 -18 2 -18 -29 0 -25 -4 -36 -15 -36 -10 0 -15 10 -15 31 0
19 -4 28 -11 24 -5 -4 -19 1 -29 10 -16 15 -23 15 -54 4 -27 -10 -36 -19 -36
-36 0 -12 -9 -27 -20 -33 -19 -10 -20 -8 -20 99 0 104 3 115 30 120 3 1 35
-31 73 -71z m360 0 c13 -18 18 -34 13 -52 l-6 -25 -55 19 c-58 20 -69 14 -34
-21 16 -16 27 -19 51 -14 23 6 29 4 26 -6 -3 -8 -21 -15 -41 -17 -28 -2 -42 3
-62 22 -31 31 -32 65 -4 100 28 36 83 33 112 -6z m187 -29 c0 -7 -26 -44 -57
-83 -31 -39 -58 -73 -59 -74 -1 -2 -9 0 -17 5 -12 6 -3 24 47 85 56 72 86 95
86 67z m-722 -131 c34 -28 41 -48 18 -48 -8 0 -16 -10 -18 -21 -2 -12 -14 -30
-28 -41 -22 -16 -30 -17 -58 -7 -37 13 -66 59 -57 89 3 11 17 28 31 39 l24 19
-26 21 c-17 13 -24 26 -20 37 6 16 28 2 134 -88z m766 1 c14 -17 26 -40 26
-51 0 -26 -53 -78 -80 -78 -30 0 -80 53 -80 85 0 35 41 75 79 75 20 0 37 -9
55 -31z m-262 -26 c10 -9 18 -22 18 -30 0 -7 8 -13 18 -13 55 0 56 -63 1 -126
l-41 -48 5 91 c7 123 0 133 -95 133 -136 0 -168 -37 -168 -195 0 -53 4 -104 8
-113 5 -9 6 -53 2 -97 -4 -51 -2 -83 5 -87 5 -4 -14 -8 -43 -8 -94 0 -152 -42
-152 -110 l0 -30 61 0 c60 0 61 0 106 50 25 28 49 50 55 50 5 0 29 -14 54 -31
l44 -30 9 25 c16 41 27 38 57 -17 l29 -52 3 55 c3 46 0 58 -19 72 -11 10 -37
18 -56 18 -20 0 -32 4 -28 10 3 5 -1 20 -9 32 -18 26 -21 48 -6 48 6 0 10 -8
10 -18 0 -25 36 -62 61 -62 11 0 31 -11 44 -25 21 -20 25 -34 25 -79 l0 -55
-221 -3 c-122 -2 -226 0 -231 3 -16 10 -3 74 21 108 20 28 49 44 103 55 49 11
60 50 56 201 l-3 133 -37 6 c-42 7 -51 32 -22 57 13 10 19 10 36 0 24 -15 36
-6 22 17 -13 21 -50 28 -68 13 -37 -31 -19 -141 23 -141 12 0 21 -4 21 -10 0
-18 -31 -10 -55 15 -35 34 -35 106 0 140 28 29 43 31 70 11 18 -13 23 -11 57
20 37 33 40 34 125 34 66 0 91 -4 105 -17z m-402 -26 c0 -4 -9 -3 -20 3 -11 6
-20 15 -20 20 0 6 9 5 20 -2 11 -7 20 -16 20 -21z m390 -78 c0 -42 -4 -69 -12
-71 -7 -3 -3 -23 15 -62 53 -116 35 -146 -88 -146 -124 0 -144 34 -85 150 26
51 28 60 13 60 -52 0 -73 83 -29 117 19 15 41 19 105 19 l81 0 0 -67z m350 8
c0 -7 -22 -20 -50 -30 -37 -13 -50 -23 -50 -37 0 -32 32 -42 79 -23 23 9 44
13 47 10 15 -15 -8 -34 -60 -50 -31 -10 -56 -21 -56 -24 0 -3 29 -3 65 -1 64
6 93 -5 64 -23 -11 -6 -11 -11 -1 -21 19 -19 15 -66 -8 -78 -25 -13 -119 -9
-123 5 -1 6 14 11 33 13 66 5 80 11 80 36 0 28 -16 36 -76 36 -41 0 -44 2 -45
28 -1 15 -1 31 0 36 1 5 -4 16 -12 25 -38 45 -26 71 48 99 51 20 65 20 65 -1z
m-970 3 c19 -10 19 -11 0 -56 -24 -54 -24 -54 -6 -54 21 0 40 29 41 61 0 42
19 40 23 -2 4 -50 -28 -89 -74 -89 -71 0 -103 86 -48 129 30 24 38 25 64 11z
m200 -40 c0 -5 -10 -10 -22 -10 -19 0 -20 2 -8 10 19 13 30 13 30 0z m-265
-119 c3 -6 -2 -14 -11 -19 -9 -5 -14 -18 -12 -28 2 -15 13 -20 53 -22 56 -4
68 -11 56 -31 -12 -19 -141 -6 -141 15 0 8 5 14 12 14 9 0 9 3 0 12 -7 7 -12
19 -12 28 0 30 41 53 55 31z m795 -91 c0 -13 -11 -13 -30 0 -12 8 -11 10 8 10
12 0 22 -4 22 -10z m130 -31 c0 -6 -9 -22 -20 -36 -23 -29 -25 -54 -8 -71 17
-17 31 -15 24 4 -6 16 9 54 28 66 6 4 26 8 44 8 61 0 95 -67 53 -109 -13 -13
-16 -22 -8 -30 21 -21 -19 -21 -88 1 -76 25 -103 54 -92 100 12 45 67 101 67
67z m-840 -19 c44 -44 30 -109 -27 -131 -75 -28 -136 69 -78 126 30 31 77 33
105 5z m624 -59 c-6 -6 -24 19 -24 34 1 6 7 1 15 -9 8 -11 12 -22 9 -25z
m-562 -98 c35 -38 61 -80 55 -90 -13 -20 -148 -104 -158 -98 -16 10 -69 96
-69 112 0 24 40 54 62 47 12 -3 18 -2 15 3 -10 16 23 53 47 53 12 0 34 -12 48
-27z m836 -45 c16 -33 3 -71 -33 -94 -21 -14 -30 -14 -55 -4 -17 7 -30 15 -30
19 0 3 14 24 31 46 25 33 27 41 14 43 -21 5 -55 -26 -55 -49 0 -23 -16 -33
-24 -14 -11 30 24 84 64 97 25 9 74 -17 88 -44z"/>
<path d="M696 1254 c-9 -8 -16 -24 -16 -34 0 -22 25 -50 45 -50 14 0 45 37 45
52 0 11 -38 48 -49 48 -5 0 -17 -7 -25 -16z"/>
<path d="M510 1218 l0 -46 30 11 c17 6 30 14 30 17 0 4 -13 19 -30 35 l-30 29
0 -46z"/>
<path d="M856 1231 c-3 -5 8 -14 26 -20 44 -15 50 -14 38 9 -11 20 -54 28 -64
11z"/>
<path d="M312 1068 c-15 -15 -15 -51 0 -66 39 -39 100 17 63 58 -20 23 -45 26
-63 8z"/>
<path d="M1092 1064 c-28 -19 -26 -51 4 -71 20 -13 25 -12 50 10 27 24 28 25
11 51 -20 30 -34 32 -65 10z"/>
<path d="M930 991 c0 -5 7 -11 15 -15 21 -8 19 -33 -5 -46 -11 -6 -20 -20 -20
-32 0 -21 0 -21 25 2 31 29 39 54 25 80 -11 20 -40 28 -40 11z"/>
<path d="M645 460 l-39 -40 127 0 c70 0 127 3 127 8 -1 4 -9 22 -19 40 l-17
33 -12 -25 c-14 -32 -24 -32 -70 -1 -20 14 -41 25 -47 25 -6 0 -29 -18 -50
-40z"/>
<path d="M823 865 c3 -11 15 -46 27 -79 11 -32 19 -65 16 -72 -3 -8 -1 -14 4
-14 16 0 12 25 -15 102 -23 66 -45 109 -32 63z"/>
<path d="M221 911 c-7 -13 -6 -23 3 -36 12 -17 14 -15 24 15 15 41 15 40 -3
40 -8 0 -19 -8 -24 -19z"/>
<path d="M1172 608 c-29 -29 -6 -68 40 -68 21 0 29 6 34 25 4 15 1 32 -6 40
-15 18 -51 20 -68 3z"/>
<path d="M222 634 c-40 -28 -22 -74 30 -74 48 0 60 57 17 80 -23 13 -21 13
-47 -6z"/>
<path d="M295 480 c-7 -11 19 -65 36 -75 5 -4 19 1 29 10 19 17 19 18 -1 46
-20 29 -52 38 -64 19z"/>
<path d="M234 426 c-5 -13 1 -29 25 -66 8 -12 13 -12 30 4 l20 19 -20 28 c-22
31 -46 38 -55 15z"/>
<path d="M1141 424 c-28 -36 -11 -59 20 -27 16 15 19 25 12 38 -9 15 -12 14
-32 -11z"/>
</g>
</svg>
